<svg width="84.65" height="32.2" viewBox="0 0 84.65 32.2" xmlns="http://www.w3.org/2000/svg"><g id="svgGroup" stroke-linecap="round" fill-rule="evenodd" font-size="9pt" stroke="#000" stroke-width="0.25mm" fill="#000" style="stroke:#000;stroke-width:0.25mm;fill:#000"><path d="M 17.6 0.05 L 14.65 13.85 L 27 0 L 32.65 0 L 21.45 12.15 L 29.05 31.8 L 18.15 31.8 L 13.75 17.85 L 10.8 31.8 L 0 31.8 L 6.75 0.05 L 17.6 0.05 Z M 61.7 0.05 L 58.75 13.85 L 71.1 0 L 76.75 0 L 65.55 12.15 L 73.15 31.8 L 62.25 31.8 L 57.85 17.85 L 54.9 31.8 L 44.1 31.8 L 50.85 0.05 L 61.7 0.05 Z M 40.416 28.551 A 4.769 4.769 0 0 0 40.55 27.4 A 6.88 6.88 0 0 0 40.546 27.176 Q 40.48 25.147 39.2 24.175 Q 37.85 23.15 35.8 23.15 Q 34.75 23.15 33.775 23.475 A 6.256 6.256 0 0 0 33.594 23.538 A 5.477 5.477 0 0 0 32.05 24.4 Q 31.3 25 30.85 25.9 A 4.098 4.098 0 0 0 30.527 26.799 A 5.021 5.021 0 0 0 30.4 27.95 Q 30.4 28.792 30.594 29.462 A 3.236 3.236 0 0 0 31.725 31.175 A 4.731 4.731 0 0 0 33.346 31.99 A 5.863 5.863 0 0 0 34.95 32.2 Q 36.05 32.2 37.05 31.875 A 6.558 6.558 0 0 0 37.251 31.806 A 5.732 5.732 0 0 0 38.825 30.95 Q 39.6 30.35 40.075 29.45 A 3.96 3.96 0 0 0 40.416 28.551 Z M 84.516 28.551 A 4.769 4.769 0 0 0 84.65 27.4 A 6.88 6.88 0 0 0 84.646 27.176 Q 84.58 25.147 83.3 24.175 Q 81.95 23.15 79.9 23.15 Q 78.85 23.15 77.875 23.475 A 6.256 6.256 0 0 0 77.694 23.538 A 5.477 5.477 0 0 0 76.15 24.4 Q 75.4 25 74.95 25.9 A 4.098 4.098 0 0 0 74.627 26.799 A 5.021 5.021 0 0 0 74.5 27.95 Q 74.5 28.792 74.694 29.462 A 3.236 3.236 0 0 0 75.825 31.175 A 4.731 4.731 0 0 0 77.446 31.99 A 5.863 5.863 0 0 0 79.05 32.2 Q 80.15 32.2 81.15 31.875 A 6.558 6.558 0 0 0 81.351 31.806 A 5.732 5.732 0 0 0 82.925 30.95 Q 83.7 30.35 84.175 29.45 A 3.96 3.96 0 0 0 84.516 28.551 Z" vector-effect="non-scaling-stroke"/></g></svg>